# xmcd
#
# Track frame offsets: 
#        150
#        17218
#        46631
#        67707
#        90852
#        113256
#        131573
#        158034
#        176242
#        200448
#        227072
#        248222
#
# Disc length: 3473 seconds
#
# Revision: 0
# Processed by: cddbd v1.5.2PL0 Copyright (c) Steve Scherf et al.
# Submitted via: ExactAudioCopy v1.2
#
DISCID=880d8f0c
DTITLE=Michael Coleman and Pr. Eddie Lusk - Chicago Blues Festival 1991 
DTITLE=Feat. Kenny Neal
DYEAR=2002
DGENRE=Blues
TTITLE0=I'm Just a Blues Piano Man
TTITLE1=Seven Years Old Blues
TTITLE2=Lottery Blues
TTITLE3=Call My Job
TTITLE4=Help Me
TTITLE5=A Woman Loves a Woman
TTITLE6=I Fell In Love With a Woman In the Welfare Line
TTITLE7=Meet Me With Your Black Drawers On
TTITLE8=Killing Floor
TTITLE9=Tin Pan Alley
TTITLE10=Kansas City
TTITLE11=This Little Light of Mine
EXTD=
EXTT0=
EXTT1=
EXTT2=
EXTT3=
EXTT4=
EXTT5=
EXTT6=
EXTT7=
EXTT8=
EXTT9=
EXTT10=
EXTT11=
PLAYORDER=
